<svg xmlns="http://www.w3.org/2000/svg" viewBox="650 0 350 350" fill="#F17265">
  <path d="m830.71,21.87c-18.58,0-37.14.7-55.71,2.11-50.14,3.67-90.13,43.32-94.23,93.43-1.92,22.79-2.45,45.67-1.61,68.53.04,1.22.19,2.43.45,3.62.86,4.58,3.12,8.77,6.47,12.01,6.25,5.62,14.6,5.8,22.5,6.61,10,.99,20,1.48,29.96,1.92,32.05,1.16,71.16,1.47,106.19.08,45.93-2.18,85.75-7.23,98.96-15.8-10.95-20.29-38.38-19.65-64.34-19.01-5.16.13-10.26.25-15.16.21-19.68.63-39.38,1.06-59.1,1.3-18.58.22-37.67,1.43-56.25-.18-24.15-2.1-40.84-22.28-38.48-46.69.16-1.55.39-3.08.71-4.6,9.02-43.52,90.43-40.75,144.62-63.79l-23.57,47.63c-71.34,7.99-99.95,12.37-115.04,30.13,6.7,6.74,19.15,7.14,27.99,7.5,12.81.62,25.76-.13,38.57-.67l111.11-4.15s28.3-1.39,42.63,15.4c7.28,9.38,11.74,20.64,12.86,32.46,1.33,22.67-15.36,42.31-35.54,50.53-19.14,7.81-40.89,11.92-60.44,14.2-20.25,2.34-40.65,3.11-61.03,2.32-25.04-.85-52.09-1.79-76.47-8.08-2.71-.69-5.37-1.53-7.99-2.5-1.34-.54-2.68-1.02-3.97-1.61-1.65-.71-3.26-1.52-4.87-2.37-10.2-5.46-17.22-15.43-18.92-26.87.47,5.05,1.35,10.06,2.64,14.96,11.07,42.25,47.77,72.8,91.33,76.02,37.09,2.82,74.34,2.82,111.42,0,50.16-3.65,90.17-43.31,94.27-93.43,2.46-31.84,2.46-63.82,0-95.66-4.1-50.12-44.11-89.78-94.27-93.43-18.58-1.41-37.15-2.11-55.71-2.11Z"/>
</svg>
